<?xml version="1.0" encoding="UTF-8"?>
<svg id="Layer_2" xmlns="http://www.w3.org/2000/svg" viewBox="0 0 512 512">
  <defs>
    <style>
      .cls-1 {
        fill: #8daa6d;
      }
    </style>
  </defs>
  <g id="Layer_1-2" data-name="Layer_1">
    <path class="cls-1" d="M256,32c123.71,0,224,100.29,224,224s-100.29,224-224,224S32,379.71,32,256,132.29,32,256,32ZM256,512c141.38,0,256-114.62,256-256S397.38,0,256,0,0,114.62,0,256s114.62,256,256,256ZM363.3,203.3c6.2-6.2,6.2-16.4,0-22.6s-16.4-6.2-22.6,0l-116.7,116.7-52.7-52.7c-6.2-6.2-16.4-6.2-22.6,0s-6.2,16.4,0,22.6l64,64c6.2,6.2,16.4,6.2,22.6,0l128-128h0Z"/>
  </g>
</svg>