<?xml version="1.0" encoding="UTF-8"?>
<svg id="Layer_2" xmlns="http://www.w3.org/2000/svg" viewBox="0 0 640 512">
  <defs>
    <style>
      .cls-1 {
        fill: #8daa6d;
      }
    </style>
  </defs>
  <g id="Layer_1-2" data-name="Layer_1">
    <path class="cls-1" d="M64,32c-17.7,0-32,14.3-32,32v288c0,17.7,14.3,32,32,32h5.5c13.2-37.3,48.7-64,90.5-64s77.4,26.7,90.5,64h133.5V64c0-17.7-14.3-32-32-32H64ZM64,416c-35.3,0-64-28.7-64-64V64C0,28.7,28.7,0,64,0h288c35.3,0,64,28.7,64,64v32h65.3c14,0,27.3,6.1,36.4,16.8l78.7,91.8c7.5,8.7,11.6,19.8,11.6,31.2v148.2h16c8.8,0,16,7.2,16,16s-7.2,16-16,16h-48c0,53-43,96-96,96s-96-43-96-96h-128c0,53-43,96-96,96s-96-43-96-96ZM570.9,224l-77.5-90.4c-3-3.5-7.5-5.6-12.1-5.6h-65.3v96h154.9ZM416,256v88.4c17-15.2,39.4-24.4,64-24.4,41.8,0,77.4,26.7,90.5,64h5.5v-128h-160ZM224,416c0-35.35-28.65-64-64-64s-64,28.65-64,64,28.65,64,64,64,64-28.65,64-64ZM480,480c35.35,0,64-28.65,64-64s-28.65-64-64-64-64,28.65-64,64,28.65,64,64,64ZM288,224v-126.7c-18.4,4.7-32,21.4-32,41.3v85.3h32v.1ZM288,304v-48h-32c-17.7,0-32-14.3-32-32v-85.3c0-41.3,33.4-74.7,74.7-74.7,11.8,0,21.3,9.6,21.3,21.3v218.7c0,8.8-7.2,16-16,16s-16-7.2-16-16ZM160,206.1v65.9c0,8.8-7.2,16-16,16s-16-7.2-16-16v-65.9c-31.6-7.6-54.4-37.2-52-71.1l4-56.1c.7-8.9,8.3-15.5,17.1-14.9s15.4,8.3,14.8,17.1l-4,56.1c-1.4,21,15.1,38.8,36.1,38.8s37.5-17.8,36.1-38.7l-4-56.1c-.6-8.8,6-16.5,14.8-17.1s16.5,6,17.1,14.8l4,56.1c2.4,33.9-20.4,63.5-52,71.1h0ZM160,80v64c0,8.8-7.2,16-16,16s-16-7.2-16-16v-64c0-8.8,7.2-16,16-16s16,7.2,16,16Z"/>
  </g>
</svg>