<?xml version="1.0" encoding="UTF-8"?>
<svg id="Layer_2" xmlns="http://www.w3.org/2000/svg" viewBox="0 0 576 505.45">
  <defs>
    <style>
      .cls-1 {
        fill: #8daa6d;
      }
    </style>
  </defs>
  <g id="Layer_1-2" data-name="Layer_1">
    <path class="cls-1" d="M163.9,22.35c27.8-28.2,71.9-29.7,101.4-4.6,5.8,4.9,11,10.4,16.3,15.9,2.1,2.2,4.2,4.5,6.4,6.6,2.1-2.2,4.3-4.4,6.4-6.6,5.2-5.5,10.5-11,16.3-15.9,29.5-25.1,73.6-23.6,101.4,4.6,29.4,29.8,29.4,78.2,0,108l-101.6,103.2c-6.2,6.3-14.3,9.4-22.5,9.4s-16.3-3.1-22.5-9.4l-101.6-103.2c-29.4-29.8-29.4-78.2,0-108ZM247.5,44.85c-16.8-17.1-44-17.1-60.8,0-17.1,17.4-17.1,45.7,0,63.1l101.3,102.8,101.3-102.9c17.1-17.4,17.1-45.7,0-63.1-16.8-17.1-44-17.1-60.8,0l-29.1,29.6c-6.3,6.4-16.5,6.4-22.8,0l-29.1-29.5ZM151,310.85c13.1-8.8,28.6-13.4,44.4-13.4h148.6c30.9,0,56,25.1,56,56,0,8.6-1.9,16.7-5.4,24h5.6l94.7-56.4c8.3-4.9,17.8-7.6,27.5-7.6h1.3c28.9,0,52.3,23.4,52.3,52.3,0,17.7-9,34.2-23.8,43.8l-119.6,77.8c-18.2,11.8-39.4,18.1-61,18.1H16c-8.8,0-16-7.2-16-16s7.2-16,16-16h355.5c15.5,0,30.6-4.5,43.6-12.9l119.6-77.8c5.8-3.7,9.2-10.2,9.2-17,0-11.2-9.1-20.3-20.3-20.3h-1.3c-3.9,0-7.7,1.1-11.1,3l-98.5,58.7c-2.5,1.5-5.3,2.3-8.2,2.3h-148.5c-8.8,0-16-7.2-16-16s7.2-16,16-16h88c13.3,0,24-10.7,24-24s-10.7-24-24-24h-148.6c-9.5,0-18.7,2.8-26.6,8.1l-79.9,53.2c-2.6,1.8-5.7,2.7-8.9,2.7H16c-8.8,0-16-7.2-16-16s7.2-16,16-16h59.2l75.8-50.6Z"/>
  </g>
</svg>