<?xml version="1.0" encoding="UTF-8"?>
<svg id="Layer_2" xmlns="http://www.w3.org/2000/svg" viewBox="0 0 512 512">
  <defs>
    <style>
      .cls-1 {
        fill: #8daa6d;
      }
    </style>
  </defs>
  <g id="Layer_1-2" data-name="Layer_1">
    <path class="cls-1" d="M241.1,32c37.1,0,68.9,22.7,82.3,55,2.8,6.6,9.6,10.6,16.7,9.7,3.9-.5,7.8-.7,11.8-.7,7.4,0,14.6.8,21.5,2.4,8.7-1.6,17.6-2.4,26.6-2.4,15.3,0,30,2.4,43.8,6.8-23.3-23.9-55.8-38.8-91.8-38.8-1.3,0-2.7,0-4,.1C327.6,26,287.4,0,241.1,0s-86.5,26-106.9,64.1c-2.1-.1-4.1-.1-6.2-.1C57.3,64,0,121.3,0,192c0,23.3,6.2,45.2,17.1,64h39.3c-15.2-17-24.4-39.4-24.4-64,0-53,43-96,96-96,4.6,0,9.2.3,13.6,1,7.2,1,14.3-3,17-9.7,13.4-32.5,45.3-55.3,82.5-55.3ZM400,160c44.2,0,80,35.8,80,80,0,5.5-.6,10.8-1.6,16h32.5c.7-5.2,1.1-10.6,1.1-16,0-61.9-50.1-112-112-112s-112,50.1-112,112c0,5.4.4,10.8,1.1,16h32.5c-1-5.2-1.6-10.5-1.6-16,0-44.2,35.8-80,80-80ZM129.3,457.1c-2.7-9-9.2-16.4-17.8-20.2-45.6-19.9-77.6-64.6-79.4-116.9h447.8c-1.8,52.3-33.9,97-79.4,116.9-8.6,3.8-15.2,11.2-17.8,20.2-4,13.3-16.2,22.9-30.7,22.9h-192c-14.5,0-26.7-9.6-30.7-22.9ZM27.4,288c-15.1,0-27.4,12.3-27.4,27.4,0,67.4,40.6,125.4,98.6,150.8,7.9,26.5,32.4,45.8,61.4,45.8h192c29,0,53.5-19.3,61.4-45.7,58.1-25.4,98.6-83.4,98.6-150.8,0-15.1-12.3-27.4-27.4-27.4l-457.2-.1ZM256,112c0-8.8-7.2-16-16-16s-16,7.2-16,16v128c0,8.8,7.2,16,16,16s16-7.2,16-16V112ZM107.3,148.7c-6.2-6.2-16.4-6.2-22.6,0s-6.2,16.4,0,22.6l80,80c6.2,6.2,16.4,6.2,22.6,0s6.2-16.4,0-22.6l-80-80h0Z"/>
  </g>
</svg>